<svg xmlns="http://www.w3.org/2000/svg" width="920" height="445" viewBox="0 0 920 445"><style>text{font-family:Consolas,&quot;Courier New&quot;,monospace;font-size:14px;dominant-baseline:text-before-edge;white-space:pre}</style><rect width="920" height="445" fill="#000"/><g><text x="0" y="2" fill="#fff" lengthAdjust="spacingAndGlyphs" textLength="900" transform="translate(10, 10)">Line 26</text><text x="0" y="19" fill="#fff" lengthAdjust="spacingAndGlyphs" textLength="900" transform="translate(10, 10)">Line 27</text><text x="0" y="36" fill="#fff" lengthAdjust="spacingAndGlyphs" textLength="900" transform="translate(10, 10)">Line 28</text><text x="0" y="53" fill="#fff" lengthAdjust="spacingAndGlyphs" textLength="900" transform="translate(10, 10)">Line 29</text><text x="0" y="70" fill="#fff" lengthAdjust="spacingAndGlyphs" textLength="900" transform="translate(10, 10)">Line 30</text><text x="0" y="87" fill="#fff" lengthAdjust="spacingAndGlyphs" textLength="900" transform="translate(10, 10)">Line 31</text><text x="0" y="104" fill="#fff" lengthAdjust="spacingAndGlyphs" textLength="900" transform="translate(10, 10)">Line 32</text><text x="0" y="121" fill="#fff" lengthAdjust="spacingAndGlyphs" textLength="900" transform="translate(10, 10)">Line 33</text><text x="0" y="138" fill="#fff" lengthAdjust="spacingAndGlyphs" textLength="900" transform="translate(10, 10)">Line 34</text><text x="0" y="155" fill="#fff" lengthAdjust="spacingAndGlyphs" textLength="900" transform="translate(10, 10)">Line 35</text><text x="0" y="172" fill="#fff" lengthAdjust="spacingAndGlyphs" textLength="900" transform="translate(10, 10)">Line 36</text><text x="0" y="189" fill="#fff" lengthAdjust="spacingAndGlyphs" textLength="900" transform="translate(10, 10)">Line 37</text><text x="0" y="206" fill="#fff" lengthAdjust="spacingAndGlyphs" textLength="675" transform="translate(10, 10)">Line 38</text><text x="675" y="206" fill="#333" lengthAdjust="spacingAndGlyphs" textLength="9" transform="translate(10, 10)">▄</text><text x="0" y="223" fill="#fff" lengthAdjust="spacingAndGlyphs" textLength="675" transform="translate(10, 10)">Line 39</text><text x="675" y="223" fill="#333" lengthAdjust="spacingAndGlyphs" textLength="9" transform="translate(10, 10)">█</text><text x="0" y="240" fill="#fff" lengthAdjust="spacingAndGlyphs" textLength="675" transform="translate(10, 10)">Line 40</text><text x="675" y="240" fill="#333" lengthAdjust="spacingAndGlyphs" textLength="9" transform="translate(10, 10)">█</text><text x="0" y="257" fill="#fff" lengthAdjust="spacingAndGlyphs" textLength="675" transform="translate(10, 10)">Line 41</text><text x="675" y="257" fill="#333" lengthAdjust="spacingAndGlyphs" textLength="9" transform="translate(10, 10)">█</text><text x="0" y="274" fill="#fff" lengthAdjust="spacingAndGlyphs" textLength="675" transform="translate(10, 10)">Line 42</text><text x="675" y="274" fill="#333" lengthAdjust="spacingAndGlyphs" textLength="9" transform="translate(10, 10)">█</text><text x="0" y="291" fill="#fff" lengthAdjust="spacingAndGlyphs" textLength="675" transform="translate(10, 10)">Line 43</text><text x="675" y="291" fill="#333" lengthAdjust="spacingAndGlyphs" textLength="9" transform="translate(10, 10)">█</text><text x="0" y="308" fill="#fff" lengthAdjust="spacingAndGlyphs" textLength="675" transform="translate(10, 10)">Line 44</text><text x="675" y="308" fill="#333" lengthAdjust="spacingAndGlyphs" textLength="9" transform="translate(10, 10)">█</text><text x="0" y="325" fill="#fff" lengthAdjust="spacingAndGlyphs" textLength="675" transform="translate(10, 10)">Line 45</text><text x="675" y="325" fill="#333" lengthAdjust="spacingAndGlyphs" textLength="9" transform="translate(10, 10)">█</text><text x="0" y="342" fill="#fff" lengthAdjust="spacingAndGlyphs" textLength="675" transform="translate(10, 10)">Line 46</text><text x="675" y="342" fill="#333" lengthAdjust="spacingAndGlyphs" textLength="9" transform="translate(10, 10)">█</text><text x="0" y="359" fill="#fff" lengthAdjust="spacingAndGlyphs" textLength="675" transform="translate(10, 10)">Line 47</text><text x="675" y="359" fill="#333" lengthAdjust="spacingAndGlyphs" textLength="9" transform="translate(10, 10)">█</text><text x="0" y="376" fill="#fff" lengthAdjust="spacingAndGlyphs" textLength="675" transform="translate(10, 10)">Line 48</text><text x="675" y="376" fill="#333" lengthAdjust="spacingAndGlyphs" textLength="9" transform="translate(10, 10)">█</text><text x="0" y="393" fill="#fff" lengthAdjust="spacingAndGlyphs" textLength="675" transform="translate(10, 10)">Line 49</text><text x="675" y="393" fill="#333" lengthAdjust="spacingAndGlyphs" textLength="9" transform="translate(10, 10)">█</text><text x="0" y="410" fill="#fff" lengthAdjust="spacingAndGlyphs" textLength="675" transform="translate(10, 10)">Line 50</text><text x="675" y="410" fill="#333" lengthAdjust="spacingAndGlyphs" textLength="9" transform="translate(10, 10)">█</text></g></svg>